<svg xmlns="http://www.w3.org/2000/svg" viewBox="0 0 520 300" font-family="Noto Sans TC,PingFang TC,Microsoft JhengHei,sans-serif" font-size="15">
<defs><marker id="arr" viewBox="0 0 10 10" refX="8" refY="5" markerWidth="7" markerHeight="7" orient="auto-start-reverse"><path d="M0,0 L10,5 L0,10 z" fill="#22242a"/></marker><marker id="arrB" viewBox="0 0 10 10" refX="8" refY="5" markerWidth="6" markerHeight="6" orient="auto-start-reverse"><path d="M0,0 L10,5 L0,10 z" fill="#3a6ea5"/></marker><marker id="arrR" viewBox="0 0 10 10" refX="8" refY="5" markerWidth="6" markerHeight="6" orient="auto-start-reverse"><path d="M0,0 L10,5 L0,10 z" fill="#c0392b"/></marker></defs>
<line x1="130" y1="20" x2="130" y2="280" stroke="#eceadf" stroke-width="1"/><line x1="130" y1="20" x2="390" y2="20" stroke="#eceadf" stroke-width="1"/><line x1="156" y1="20" x2="156" y2="280" stroke="#eceadf" stroke-width="1"/><line x1="130" y1="46" x2="390" y2="46" stroke="#eceadf" stroke-width="1"/><line x1="182" y1="20" x2="182" y2="280" stroke="#eceadf" stroke-width="1"/><line x1="130" y1="72" x2="390" y2="72" stroke="#eceadf" stroke-width="1"/><line x1="208" y1="20" x2="208" y2="280" stroke="#eceadf" stroke-width="1"/><line x1="130" y1="98" x2="390" y2="98" stroke="#eceadf" stroke-width="1"/><line x1="234" y1="20" x2="234" y2="280" stroke="#eceadf" stroke-width="1"/><line x1="130" y1="124" x2="390" y2="124" stroke="#eceadf" stroke-width="1"/><line x1="286" y1="20" x2="286" y2="280" stroke="#eceadf" stroke-width="1"/><line x1="130" y1="176" x2="390" y2="176" stroke="#eceadf" stroke-width="1"/><line x1="312" y1="20" x2="312" y2="280" stroke="#eceadf" stroke-width="1"/><line x1="130" y1="202" x2="390" y2="202" stroke="#eceadf" stroke-width="1"/><line x1="338" y1="20" x2="338" y2="280" stroke="#eceadf" stroke-width="1"/><line x1="130" y1="228" x2="390" y2="228" stroke="#eceadf" stroke-width="1"/><line x1="364" y1="20" x2="364" y2="280" stroke="#eceadf" stroke-width="1"/><line x1="130" y1="254" x2="390" y2="254" stroke="#eceadf" stroke-width="1"/><line x1="390" y1="20" x2="390" y2="280" stroke="#eceadf" stroke-width="1"/><line x1="130" y1="280" x2="390" y2="280" stroke="#eceadf" stroke-width="1"/><line x1="118" y1="150" x2="408" y2="150" stroke="#22242a" stroke-width="2" marker-end="url(#arr)"/><line x1="260" y1="292" x2="260" y2="2" stroke="#22242a" stroke-width="2" marker-end="url(#arr)"/><text x="414" y="155" fill="#22242a" text-anchor="start" font-size="15" font-weight="700">x</text><text x="260" y="-4" fill="#22242a" text-anchor="middle" font-size="15" font-weight="700">y</text><text x="250" y="166" fill="#8a8ea0" text-anchor="middle" font-size="13">O</text><line x1="364" y1="150" x2="364" y2="72" stroke="#3a6ea5" stroke-width="1.5" stroke-dasharray="4 3"/><line x1="260" y1="72" x2="364" y2="72" stroke="#3a6ea5" stroke-width="1.5" stroke-dasharray="4 3"/><circle cx="364" cy="72" r="5" fill="#c0392b"/><text x="376" y="64" fill="#c0392b" text-anchor="start" font-size="15" font-weight="700">A(4,3)</text><text x="364" y="166" fill="#3a6ea5" text-anchor="middle" font-size="13">4</text><text x="250" y="77" fill="#3a6ea5" text-anchor="middle" font-size="13">3</text><text x="370" y="180" fill="#8a8ea0" text-anchor="middle" font-size="12">x 軸（水平）</text><text x="306" y="28" fill="#8a8ea0" text-anchor="middle" font-size="12">y 軸（鉛垂）</text></svg>
