<svg xmlns="http://www.w3.org/2000/svg" viewBox="0 0 580 180" font-family="Noto Sans TC,PingFang TC,Microsoft JhengHei,sans-serif" font-size="15">
<defs><marker id="arr" viewBox="0 0 10 10" refX="8" refY="5" markerWidth="7" markerHeight="7" orient="auto-start-reverse"><path d="M0,0 L10,5 L0,10 z" fill="#22242a"/></marker><marker id="arrB" viewBox="0 0 10 10" refX="8" refY="5" markerWidth="6" markerHeight="6" orient="auto-start-reverse"><path d="M0,0 L10,5 L0,10 z" fill="#3a6ea5"/></marker><marker id="arrR" viewBox="0 0 10 10" refX="8" refY="5" markerWidth="6" markerHeight="6" orient="auto-start-reverse"><path d="M0,0 L10,5 L0,10 z" fill="#c0392b"/></marker></defs>
<line x1="20" y1="56" x2="140" y2="56" stroke="#22242a" stroke-width="2"/><line x1="80" y1="51" x2="80" y2="61" stroke="#22242a" stroke-width="1.5"/><text x="80" y="76" fill="#22242a" text-anchor="middle" font-size="13">a</text><line x1="80" y1="42" x2="22" y2="42" stroke="#3a6ea5" stroke-width="2.5" marker-end="url(#arrB)"/><circle cx="80" cy="42" r="5" fill="#fdfcf7" stroke="#3a6ea5" stroke-width="2"/><text x="80" y="26" fill="#3a6ea5" text-anchor="middle" font-size="14" font-weight="700">x < a</text><line x1="160" y1="56" x2="280" y2="56" stroke="#22242a" stroke-width="2"/><line x1="220" y1="51" x2="220" y2="61" stroke="#22242a" stroke-width="1.5"/><text x="220" y="76" fill="#22242a" text-anchor="middle" font-size="13">a</text><line x1="220" y1="42" x2="162" y2="42" stroke="#3a6ea5" stroke-width="2.5" marker-end="url(#arrB)"/><circle cx="220" cy="42" r="5" fill="#3a6ea5" stroke="#3a6ea5" stroke-width="2"/><text x="220" y="26" fill="#3a6ea5" text-anchor="middle" font-size="14" font-weight="700">x ≤ a</text><line x1="300" y1="56" x2="420" y2="56" stroke="#22242a" stroke-width="2"/><line x1="360" y1="51" x2="360" y2="61" stroke="#22242a" stroke-width="1.5"/><text x="360" y="76" fill="#22242a" text-anchor="middle" font-size="13">a</text><line x1="360" y1="42" x2="418" y2="42" stroke="#3a6ea5" stroke-width="2.5" marker-end="url(#arrB)"/><circle cx="360" cy="42" r="5" fill="#fdfcf7" stroke="#3a6ea5" stroke-width="2"/><text x="360" y="26" fill="#3a6ea5" text-anchor="middle" font-size="14" font-weight="700">x > a</text><line x1="440" y1="56" x2="560" y2="56" stroke="#22242a" stroke-width="2"/><line x1="500" y1="51" x2="500" y2="61" stroke="#22242a" stroke-width="1.5"/><text x="500" y="76" fill="#22242a" text-anchor="middle" font-size="13">a</text><line x1="500" y1="42" x2="558" y2="42" stroke="#3a6ea5" stroke-width="2.5" marker-end="url(#arrB)"/><circle cx="500" cy="42" r="5" fill="#3a6ea5" stroke="#3a6ea5" stroke-width="2"/><text x="500" y="26" fill="#3a6ea5" text-anchor="middle" font-size="14" font-weight="700">x ≥ a</text><line x1="90" y1="132" x2="230" y2="132" stroke="#22242a" stroke-width="2"/><line x1="120" y1="127" x2="120" y2="137" stroke="#22242a" stroke-width="1.5"/><text x="120" y="152" fill="#22242a" text-anchor="middle" font-size="13">a</text><circle cx="120" cy="118" r="5" fill="#fdfcf7" stroke="#3a6ea5" stroke-width="2"/><line x1="200" y1="127" x2="200" y2="137" stroke="#22242a" stroke-width="1.5"/><text x="200" y="152" fill="#22242a" text-anchor="middle" font-size="13">b</text><circle cx="200" cy="118" r="5" fill="#fdfcf7" stroke="#3a6ea5" stroke-width="2"/><line x1="125" y1="118" x2="195" y2="118" stroke="#3a6ea5" stroke-width="2.5"/><text x="160" y="102" fill="#3a6ea5" text-anchor="middle" font-size="14" font-weight="700">a < x < b</text><line x1="330" y1="132" x2="470" y2="132" stroke="#22242a" stroke-width="2"/><line x1="360" y1="127" x2="360" y2="137" stroke="#22242a" stroke-width="1.5"/><text x="360" y="152" fill="#22242a" text-anchor="middle" font-size="13">a</text><circle cx="360" cy="118" r="5" fill="#3a6ea5" stroke="#3a6ea5" stroke-width="2"/><line x1="440" y1="127" x2="440" y2="137" stroke="#22242a" stroke-width="1.5"/><text x="440" y="152" fill="#22242a" text-anchor="middle" font-size="13">b</text><circle cx="440" cy="118" r="5" fill="#3a6ea5" stroke="#3a6ea5" stroke-width="2"/><line x1="365" y1="118" x2="435" y2="118" stroke="#3a6ea5" stroke-width="2.5"/><text x="400" y="102" fill="#3a6ea5" text-anchor="middle" font-size="14" font-weight="700">a ≤ x ≤ b</text><text x="285" y="168" fill="#8a8ea0" text-anchor="middle" font-size="13">空心＝不含端點（＞、＜）；實心＝含端點（≧、≦）</text></svg>
